<?xml version="1.0" encoding="UTF-8"?>
<svg id="_レイヤー_1" data-name="レイヤー_1" xmlns="http://www.w3.org/2000/svg" viewBox="0 0 81.7 58.55">
  <defs>
    <style>
      .cls-1 {
        letter-spacing: 0em;
      }

      .cls-2 {
        letter-spacing: -.13em;
      }

      .cls-3 {
        letter-spacing: -.07em;
      }

      .cls-4 {
        letter-spacing: -.16em;
      }

      .cls-5 {
        letter-spacing: -.18em;
      }

      .cls-6 {
        font-size: 7.95px;
      }

      .cls-6, .cls-7 {
        fill: #6a478b;
        font-family: TsukuARdGothicStd-B-90ms-RKSJ-H, 'FOT-TsukuARdGothic Std';
      }

      .cls-8 {
        letter-spacing: -.02em;
      }

      .cls-7 {
        font-size: 11.92px;
      }

      .cls-9 {
        letter-spacing: -.14em;
      }

      .cls-10 {
        fill: none;
        stroke: #6a478b;
        stroke-miterlimit: 10;
        stroke-width: .99px;
      }

      .cls-11 {
        letter-spacing: -.15em;
      }
    </style>
  </defs>
  <text class="cls-6" transform="translate(38.61 49.66)"><tspan class="cls-11" x="0" y="0">リ</tspan><tspan class="cls-5" x="6.74" y="0">ク</tspan><tspan class="cls-8" x="13.25" y="0">ル</tspan><tspan class="cls-4" x="21.07" y="0">ー</tspan><tspan x="27.71" y="0">ト</tspan></text>
  <text class="cls-7" transform="translate(33.47 40.49)"><tspan class="cls-3" x="0" y="0">マ</tspan><tspan class="cls-2" x="11.04" y="0">ナ</tspan><tspan class="cls-9" x="21.39" y="0">ヨ</tspan><tspan class="cls-1" x="31.69" y="0">ガ</tspan></text>
  <path class="cls-10" d="M34.73,44.42l-3.86,3.92-13.72-13.23c-7.13-6.11-9.4-11.96-6.52-16.65,4.18-6.82,13.68-5.59,18.1-1.37.83.79.98.91,1.74,1.78.65-.91.94-1.14,1.5-1.78,3.89-4.51,14.39-6.8,18.58,1.37,2.05,3.99.14,8.7-3.85,13.6"/>
</svg>